<?xml version="1.0" encoding="UTF-8"?><svg id="Capa_2" xmlns="http://www.w3.org/2000/svg" viewBox="0 0 1521.89 527.47"><defs><style>.cls-1{fill:#fff;}</style></defs><g id="Capa_1-2"><g><g><path class="cls-1" d="m94.1,166.16l11.89,66.48c.83,4.6,1.96,9.12,3.39,13.56,1.43,4.45,2.79,8.24,4.09,11.37l3.43,7.6,1.49,2.9-.5.32-2.08-2.17c-.59-.56-1.48-1.51-2.68-2.84-1.2-1.34-2.2-2.45-2.99-3.34-2.29-2.5-5.14-5.34-8.56-8.53-3.31-3.01-6.93-5.95-10.85-8.82l-55.16-38.96L0,226.35l110.55,173.84,35.56-22.62-36.37-57.2c-4.22-6.63-8.58-12.94-13.08-18.92-3.6-4.92-7.74-9.98-12.43-15.15-1.12-1.39-2.7-3.23-4.75-5.54-2.05-2.3-3.47-3.9-4.27-4.79l-3.44-3.75.99-.63,2.89,2.35c.75.45,1.88,1.31,3.38,2.57,1.5,1.26,2.73,2.28,3.69,3.06.96.79,2.44,2.01,4.42,3.65,1.98,1.65,3.59,2.9,4.83,3.74,4.61,3.59,8.01,6.2,10.21,7.82l37.83,27.64,17.41-11.07-8.98-45.98c-1.09-5.36-1.95-9.47-2.6-12.32-.24-1.47-.72-3.5-1.42-6.08-.71-2.57-1.16-4.38-1.35-5.43-.2-1.04-.54-2.5-1.05-4.4-.5-1.89-.8-3.27-.89-4.15l-.75-3.37,1-.63,2.1,4.95c.47,1.1,1.38,3.09,2.73,5.95,1.35,2.87,2.34,5.15,2.96,6.85,2.7,6.44,5.51,12.33,8.45,17.68,3.4,6.45,7.27,13.08,11.59,19.87l36.22,56.95,35.56-22.62-111.34-175.08-35.56,22.62Z"/><path class="cls-1" d="m317.51,128.91l.24.03v-5.31s.11-24.17.11-24.17c.01-1.64-.14-3.26-.42-4.82-1.59-8.74-7.51-16.15-15.35-19.6-1.56-.7-3.21-1.24-4.92-1.59-1.18-.26-2.37-.42-3.59-.5l-16.93-1.01v.38l-.16,41.11-.05,13.05h.09s-.66,20.32-.66,20.32c-.2,10.15.28,18.15,1.42,24.01,1.14,5.86,1.63,8.83,1.45,8.9l-.55.21c-.18.07-1.77-2.48-4.76-7.66-2.98-5.18-7.87-11.53-14.67-19.06l-42.69-46.03-42.51,15.89,97.65,101.31,27.02,72.33,42.52-15.89-27.04-72.33,3.8-79.57Z"/><path class="cls-1" d="m541.1,177.9c-1.05,4.18-2.38,7.41-3.97,9.68-1.76,2.51-3.64,4.24-5.66,5.2-2.22.99-4.78,1.74-7.68,2.26-8.12,1.44-15.13-2.6-21.01-12.14-5.88-9.53-10.73-25.03-14.54-46.51-3.94-22.25-5.05-38.61-3.32-49.1,1.73-10.48,6.66-16.45,14.79-17.89,2.13-.38,4.21-.45,6.25-.21,1.84.27,3.87,1.01,6.08,2.21,2.01,1.24,4.05,3.17,6.11,5.8,2.06,2.63,4.18,6.14,6.36,10.55l.48-.68,39.49-18.68c-7.9-17.55-17.76-29.78-29.55-36.66-11.8-6.88-25.92-8.87-42.36-5.95-23.22,4.12-38.81,15.77-46.78,34.94-7.97,19.18-8.75,46.85-2.33,83.03,6.42,36.18,16.66,61.9,30.75,77.16,13.82,14.91,32.43,20.29,55.84,16.13,17.99-3.19,31.48-10.38,40.47-21.55,9.31-11.63,14.18-28.06,14.61-49.29l-42.3-3.87c-.06,6.4-.63,11.59-1.73,15.57Z"/><path class="cls-1" d="m704.17,27.74c-12.55-16.33-30.57-23.56-54.08-21.67-23.5,1.89-40.13,12-49.89,30.33-9.75,18.08-13.16,45.44-10.25,82.07,2.98,36.7,10.73,63.2,23.25,79.5,12.34,16.15,30.36,23.28,54.05,21.37,23.89-1.93,40.55-11.74,49.96-29.45,9.76-18.33,13.17-45.8,10.22-82.43-2.95-36.62-10.71-63.2-23.27-79.73Zm-21.41,112.3c-.31,8.5-1.06,15.07-2.26,19.7-1.35,5.24-3.4,9.14-6.15,11.73-2.75,2.59-6.28,4.06-10.59,4.4-4.31.35-8.02-.54-11.15-2.65-3.13-2.11-5.78-5.64-7.95-10.59-1.93-4.38-3.72-10.74-5.38-19.08-1.35-6.99-2.52-16.65-3.51-28.99-.99-12.34-1.38-22.06-1.17-29.18.3-8.5,1.05-15.06,2.26-19.69,1.35-5.23,3.4-9.14,6.15-11.73,2.75-2.59,6.27-4.05,10.59-4.4,4.31-.35,8.03.54,11.15,2.65,3.13,2.11,5.78,5.65,7.95,10.6,1.93,4.38,3.72,10.74,5.38,19.08,1.35,6.99,2.52,16.65,3.52,28.99.99,12.34,1.38,22.07,1.17,29.18Z"/><path class="cls-1" d="m589.98,118.84c0-.12-.02-.23-.03-.35,0-.08-.01-.15-.02-.23l.05.59Z"/><path class="cls-1" d="m832.67,158.43c-1.8,3.92-3.69,6.85-5.67,8.8-2.18,2.15-4.35,3.5-6.52,4.08-2.36.57-5.02.84-7.96.82-8.25-.06-14.4-5.31-18.45-15.76-4.04-10.44-5.98-26.57-5.81-48.38.18-22.59,2.07-38.89,5.68-48.88,3.61-9.99,9.55-14.96,17.8-14.89,2.16.02,4.22.33,6.18.93,1.76.6,3.62,1.7,5.57,3.29,1.76,1.59,3.4,3.86,4.96,6.82,1.55,2.96,2.99,6.8,4.33,11.53l.59-.59,42.23-11.16c-4.57-18.7-12.03-32.51-22.37-41.44C842.89,4.66,829.37.13,812.67,0c-23.57-.18-41.03,8.43-52.37,25.83-11.33,17.4-17.14,44.47-17.43,81.21-.28,36.75,5.1,63.9,16.17,81.47,10.87,17.18,28.19,25.86,51.96,26.04,18.27.14,32.85-4.46,43.73-13.81,11.28-9.74,19.06-25,23.34-45.8l-40.88-11.52c-1.23,6.28-2.74,11.28-4.54,15Z"/><path class="cls-1" d="m1004.82,15.73l-34.5,39.78c-7.63,9.11-13.06,15.97-16.28,20.58-3.25,4.81-4.97,7.2-5.16,7.18l-.59-.06.35-3.52.94-9.39c.55-5.47,1.08-9.76,1.59-12.87.51-3.11,1.1-7.98,1.77-14.63l3.21-31.96-45.16-4.53-20.62,205.27,45.16,4.54,7.51-74.78,7.28-7.56,36.83,87.52,51.32,5.15-55.72-126.45,74.87-78.97-52.79-5.3Z"/><polygon class="cls-1" points="1200.14 49.39 1074.15 24.15 1065.41 67.79 1105.86 75.89 1074.08 234.54 1118.59 243.46 1150.37 84.81 1191.4 93.03 1200.14 49.39"/><path class="cls-1" d="m1262.85,67.33l-109.37,181.56,43.77,14.05,15.98-28.67,24.42,7.89c1.17.38,2.34.64,3.51.85l20.45,6.57,1.12.35-3.75,32.85,43.78,14.05,16.79-211.29-56.69-18.2Zm16.84,47.82l-1.05,5.23c-.12,1-.39,2.66-.83,4.99-.45,2.34-.72,4-.84,4.99-1.34,7.41-2.09,12.63-2.25,15.68l-5.5,58.26-32.36-10.45,28.32-50.87c2.93-5.24,5.36-9.94,7.31-14.06.47-.87,1.22-2.39,2.23-4.53,1-2.16,1.74-3.67,2.23-4.55l2.18-4.88.45-1.39.57.17-.46,1.41Z"/><rect class="cls-1" x="1271.4" y="195.98" width="206.3" height="45.39" transform="translate(606.51 1379.42) rotate(-65.55)"/><path class="cls-1" d="m1443.5,305.58l-.2-.13,78.59-125-38.42-24.16-78.5,124.83-.29-.18-17.1,26.95c-.96,1.5-1.74,3.06-2.37,4.65-4.19,10.63-1.21,22.9,7.52,30.4,1,.87,2.06,1.67,3.21,2.39l15.9,10.11.22-.34,54.89,34.52,23.7-37.67-54.74-34.42,7.58-11.93Z"/></g><g><g><path class="cls-1" d="m163.62,526.72v-89.03h38.01v12.01h-25.26v27h22.01v12.01h-22.01v38.01h-12.75Z"/><path class="cls-1" d="m210.26,526.72v-89.03h12.75v89.03h-12.75Z"/><path class="cls-1" d="m234.89,526.72v-89.03h12.25l19.26,53.64h.25v-53.64h12.75v89.03h-12l-19.51-53.51h-.25v53.51h-12.75Z"/><path class="cls-1" d="m290.91,526.72v-89.03h38.01v12.01h-25.26v26.13h22.01v12.01h-22.01v26.13h25.26v12.75h-38.01Z"/><path class="cls-1" d="m360.42,526.72v-89.03h18.88c7.33,0,12.9,2,16.69,6,3.79,4,5.69,9.67,5.69,17.01v41.64c0,8.33-2.02,14.48-6.07,18.44-4.04,3.96-9.86,5.94-17.44,5.94h-17.75Zm12.75-77.02v65.01h5.88c3.58,0,6.13-.89,7.63-2.69,1.5-1.79,2.25-4.6,2.25-8.44v-42.89c0-3.5-.71-6.21-2.12-8.13-1.42-1.92-4-2.88-7.75-2.88h-5.88Z"/><path class="cls-1" d="m413.69,526.72v-89.03h20.51c15.01,0,22.51,8.71,22.51,26.13,0,5.25-.81,9.71-2.44,13.38-1.62,3.67-4.48,6.63-8.56,8.88l13.75,40.64h-13.5l-11.88-38.01h-7.63v38.01h-12.75Zm12.75-77.02v27.76h7.25c2.25,0,4.04-.31,5.37-.94,1.33-.63,2.38-1.52,3.13-2.69.67-1.16,1.13-2.6,1.38-4.31.25-1.71.37-3.69.37-5.94s-.12-4.23-.37-5.94c-.25-1.71-.75-3.19-1.5-4.44-1.58-2.33-4.58-3.5-9-3.5h-6.63Z"/><path class="cls-1" d="m467.33,526.72v-89.03h12.75v89.03h-12.75Z"/><path class="cls-1" d="m491.96,526.72v-89.03h12.25l19.26,53.64h.25v-53.64h12.75v89.03h-12l-19.51-53.51h-.25v53.51h-12.75Z"/><path class="cls-1" d="m547.97,526.72v-89.03h12.75v40.64h.25l18.63-40.64h12.75l-17.38,35.64,20.63,53.39h-13.5l-14.5-39.51-6.88,12.88v26.63h-12.75Z"/><path class="cls-1" d="m642.5,463.32h-12.76v-2.88c0-2.92-.69-5.44-2.06-7.57-1.38-2.12-3.69-3.19-6.94-3.19-1.75,0-3.17.33-4.25,1-1.08.67-1.96,1.5-2.63,2.5-.67,1.08-1.12,2.31-1.37,3.69-.25,1.38-.38,2.82-.38,4.31,0,1.75.06,3.21.19,4.38.12,1.17.44,2.21.94,3.13.5.92,1.23,1.71,2.19,2.38.96.67,2.27,1.33,3.94,2l9.75,3.88c2.83,1.08,5.13,2.35,6.88,3.81,1.75,1.46,3.13,3.15,4.13,5.07.92,2,1.54,4.27,1.88,6.81.33,2.54.5,5.44.5,8.69,0,3.75-.38,7.23-1.13,10.44-.75,3.21-1.96,5.94-3.62,8.19-1.75,2.33-4.04,4.17-6.88,5.5-2.84,1.33-6.29,2-10.38,2-3.08,0-5.96-.55-8.63-1.63-2.67-1.08-4.96-2.58-6.88-4.5-1.92-1.92-3.44-4.15-4.56-6.69-1.12-2.54-1.69-5.31-1.69-8.31v-4.75h12.75v4c0,2.33.69,4.44,2.06,6.31,1.38,1.88,3.69,2.81,6.94,2.81,2.17,0,3.86-.31,5.07-.94,1.21-.63,2.14-1.52,2.81-2.69.67-1.17,1.06-2.56,1.19-4.19.12-1.63.18-3.44.18-5.44,0-2.33-.08-4.25-.25-5.75-.17-1.5-.5-2.71-1-3.63-.58-.92-1.35-1.67-2.31-2.25-.96-.58-2.23-1.21-3.81-1.88l-9.13-3.75c-5.5-2.25-9.19-5.23-11.07-8.94-1.88-3.71-2.82-8.35-2.82-13.94,0-3.33.46-6.5,1.38-9.5.92-3,2.29-5.58,4.13-7.75,1.75-2.17,3.98-3.9,6.69-5.19,2.71-1.29,5.94-1.94,9.69-1.94,3.17,0,6.06.59,8.69,1.75,2.63,1.17,4.9,2.71,6.82,4.63,3.83,4,5.75,8.59,5.75,13.75v6.25Z"/></g><g><path class="cls-1" d="m714.98,501.33v5.5c0,2.75-.52,5.36-1.56,7.82-1.04,2.46-2.48,4.65-4.31,6.56-1.84,1.92-3.98,3.44-6.44,4.56-2.46,1.12-5.11,1.69-7.94,1.69-2.42,0-4.88-.34-7.38-1-2.5-.66-4.75-1.83-6.75-3.5-2-1.67-3.65-3.82-4.94-6.44-1.29-2.63-1.94-5.98-1.94-10.07v-49.01c0-2.92.5-5.63,1.5-8.13,1-2.5,2.42-4.67,4.25-6.5,1.84-1.83,4.02-3.27,6.57-4.31,2.54-1.04,5.35-1.57,8.44-1.57,6,0,10.88,1.96,14.63,5.88,1.83,1.92,3.27,4.19,4.31,6.82,1.04,2.63,1.56,5.48,1.56,8.56v5h-12.75v-4.25c0-2.5-.71-4.67-2.12-6.5-1.42-1.83-3.34-2.75-5.75-2.75-3.17,0-5.27.98-6.31,2.94-1.04,1.96-1.56,4.44-1.56,7.44v45.51c0,2.59.56,4.75,1.69,6.5s3.15,2.62,6.06,2.62c.84,0,1.73-.14,2.69-.44.96-.29,1.85-.77,2.69-1.44.75-.66,1.37-1.58,1.88-2.75.5-1.17.75-2.63.75-4.38v-4.37h12.75Z"/><path class="cls-1" d="m725.35,526.72v-89.03h20.51c15.01,0,22.51,8.71,22.51,26.13,0,5.25-.81,9.71-2.44,13.38-1.62,3.67-4.48,6.63-8.56,8.88l13.75,40.64h-13.5l-11.88-38.01h-7.63v38.01h-12.75Zm12.75-77.02v27.76h7.25c2.25,0,4.04-.31,5.37-.94,1.33-.63,2.38-1.52,3.13-2.69.67-1.16,1.13-2.6,1.38-4.31.25-1.71.37-3.69.37-5.94s-.12-4.23-.37-5.94c-.25-1.71-.75-3.19-1.5-4.44-1.58-2.33-4.58-3.5-9-3.5h-6.63Z"/><path class="cls-1" d="m772.87,526.72l19.88-89.03h10.63l19.88,89.03h-12.75l-3.75-19.13h-17.38l-3.75,19.13h-12.75Zm31.51-31.13l-6.25-32.26h-.25l-6.25,32.26h12.75Z"/><path class="cls-1" d="m829.51,526.72v-89.03h38.01v12.01h-25.26v27h22.01v12.01h-22.01v38.01h-12.75Z"/><path class="cls-1" d="m884.15,526.72v-77.02h-14.75v-12.01h42.26v12.01h-14.75v77.02h-12.75Z"/><path class="cls-1" d="m917.28,526.72v-89.03h38.01v12.01h-25.26v26.13h22.01v12.01h-22.01v26.13h25.26v12.75h-38.01Z"/><path class="cls-1" d="m963.54,526.72v-89.03h18.88c7.33,0,12.9,2,16.69,6,3.79,4,5.69,9.67,5.69,17.01v41.64c0,8.33-2.02,14.48-6.07,18.44-4.04,3.96-9.86,5.94-17.44,5.94h-17.75Zm12.75-77.02v65.01h5.88c3.58,0,6.13-.89,7.63-2.69,1.5-1.79,2.25-4.6,2.25-8.44v-42.89c0-3.5-.71-6.21-2.12-8.13-1.42-1.92-4-2.88-7.75-2.88h-5.88Z"/><path class="cls-1" d="m1040.44,526.72v-89.03h12.75v89.03h-12.75Z"/><path class="cls-1" d="m1065.07,526.72v-89.03h12.25l19.26,53.64h.25v-53.64h12.75v89.03h-12l-19.51-53.51h-.25v53.51h-12.75Z"/><path class="cls-1" d="m1184.85,501.33v5.5c0,2.75-.52,5.36-1.56,7.82-1.04,2.46-2.48,4.65-4.31,6.56-1.84,1.92-3.98,3.44-6.44,4.56-2.46,1.12-5.11,1.69-7.94,1.69-2.42,0-4.88-.34-7.38-1-2.5-.66-4.75-1.83-6.75-3.5-2-1.67-3.65-3.82-4.94-6.44-1.29-2.63-1.94-5.98-1.94-10.07v-49.01c0-2.92.5-5.63,1.5-8.13,1-2.5,2.42-4.67,4.25-6.5,1.84-1.83,4.02-3.27,6.57-4.31,2.54-1.04,5.35-1.57,8.44-1.57,6,0,10.88,1.96,14.63,5.88,1.83,1.92,3.27,4.19,4.31,6.82,1.04,2.63,1.56,5.48,1.56,8.56v5h-12.75v-4.25c0-2.5-.71-4.67-2.12-6.5-1.42-1.83-3.34-2.75-5.75-2.75-3.17,0-5.27.98-6.31,2.94-1.04,1.96-1.56,4.44-1.56,7.44v45.51c0,2.59.56,4.75,1.69,6.5s3.15,2.62,6.06,2.62c.84,0,1.73-.14,2.69-.44.96-.29,1.85-.77,2.69-1.44.75-.66,1.37-1.58,1.88-2.75.5-1.17.75-2.63.75-4.38v-4.37h12.75Z"/><path class="cls-1" d="m1195.23,526.72v-89.03h12.75v38.13h15.75v-38.13h12.76v89.03h-12.76v-39.64h-15.75v39.64h-12.75Z"/><path class="cls-1" d="m1248.86,526.72v-89.03h12.75v89.03h-12.75Z"/><path class="cls-1" d="m1273.99,526.72v-89.03h12.75v76.27h25.26v12.75h-38.01Z"/><path class="cls-1" d="m1320.26,526.72v-89.03h38.01v12.01h-25.26v26.13h22.01v12.01h-22.01v26.13h25.26v12.75h-38.01Z"/></g></g></g></g></svg>