<?xml version="1.0" encoding="UTF-8"?><svg id="Capa_2" xmlns="http://www.w3.org/2000/svg" viewBox="0 0 780.45 780.45"><defs><style>.cls-1{fill:#fff;}</style></defs><g id="Capa_1-2"><g><path class="cls-1" d="m172.55,299.96l-22.54-13.64c-2.61-1.58-5.22-3.02-7.82-4.33-2.1-1.09-4.42-2.14-6.94-3.13-.63-.29-1.5-.66-2.61-1.11-1.11-.45-1.88-.76-2.31-.93l-1.84-.71.24-.39,1.41.32c.34.03.88.13,1.62.31.74.18,1.34.32,1.81.43.47.11,1.19.28,2.17.51.97.23,1.75.39,2.32.47,2.23.45,3.86.78,4.91.96l17.94,3.09,4.15-6.86-11.06-14.46c-1.3-1.68-2.31-2.96-3.03-3.84-.34-.47-.85-1.09-1.55-1.87-.69-.77-1.16-1.33-1.41-1.66-.25-.33-.62-.78-1.12-1.35-.5-.57-.84-1-1.03-1.29l-.84-1.04.24-.39,1.59,1.36c.35.3,1.01.84,1.98,1.6.97.77,1.7,1.39,2.21,1.88,2.05,1.78,4.05,3.34,5.99,4.7,2.3,1.66,4.79,3.3,7.47,4.92l22.44,13.58,8.48-14.01-68.99-41.74-8.48,14.01,15.62,21.09c1.08,1.46,2.25,2.84,3.52,4.14,1.27,1.3,2.39,2.39,3.38,3.25l2.51,2.05,1.02.75-.12.2-1.1-.4c-.3-.09-.78-.27-1.42-.53-.65-.26-1.19-.47-1.62-.65-1.23-.48-2.71-.97-4.45-1.49-1.67-.48-3.44-.88-5.3-1.2l-25.93-4.05-8.48,14.01,68.49,41.44,8.48-14.01Z"/><path class="cls-1" d="m215.07,242.72l12.87-12.06-20.51-21.9-18.57-51.33-12.87,12.06,8.65,22.81c1.44,3.67,2.81,6.47,4.1,8.4,1.29,1.93,1.9,2.93,1.85,2.98l-.17.16c-.06.05-1.01-.63-2.85-2.04-1.85-1.41-4.55-2.96-8.11-4.64l-22.19-10.13-12.87,12.05,50.17,21.74,20.51,21.9Z"/><path class="cls-1" d="m277.1,187.56c6.41,4.62,13.91,5.24,22.51,1.86,6.61-2.6,11.2-6.37,13.76-11.31,2.65-5.14,3.25-11.78,1.78-19.9l-16.41,1.77c.47,2.44.65,4.46.54,6.06-.08,1.67-.34,3.01-.77,3.99-.48,1.09-1.06,1.89-1.76,2.41-.77.55-1.69,1.03-2.75,1.45-2.98,1.17-5.96.17-8.93-3.01-2.97-3.18-6.01-8.71-9.11-16.6-3.21-8.17-4.89-14.32-5.03-18.45-.15-4.13,1.28-6.78,4.26-7.95.78-.31,1.57-.49,2.36-.56.72-.04,1.55.09,2.49.38.86.32,1.79.9,2.78,1.74.99.84,2.06,2.02,3.23,3.53l.13-.3,13.61-10.15c-4.36-6.08-9.05-9.98-14.07-11.7-5.02-1.72-10.56-1.39-16.59.98-8.53,3.35-13.57,8.99-15.14,16.9-1.56,7.92.27,18.52,5.49,31.81,5.22,13.29,11.1,22.3,17.64,27.03Z"/><path class="cls-1" d="m332.73,168.11c5.12,6.02,12.26,8.41,21.42,7.18,9.23-1.24,15.49-5.39,18.78-12.46,3.41-7.31,4.17-18.05,2.27-32.2-1.9-14.15-5.45-24.3-10.67-30.46-5.21-6.08-12.35-8.51-21.43-7.29-9.08,1.22-15.33,5.48-18.74,12.8-3.41,7.23-4.17,17.93-2.28,32.11,1.91,14.15,5.46,24.26,10.65,30.32Zm6.45-51.83c.42-2.06,1.13-3.62,2.15-4.68,1.01-1.06,2.35-1.7,4.02-1.92,1.66-.22,3.12.04,4.38.8,1.26.76,2.36,2.07,3.3,3.95.84,1.66,1.66,4.09,2.48,7.29.67,2.68,1.32,6.41,1.96,11.18.64,4.77.99,8.53,1.05,11.3.06,3.3-.1,5.87-.47,7.69-.42,2.06-1.13,3.62-2.15,4.68-1.01,1.06-2.35,1.7-4.02,1.93-1.67.22-3.13-.04-4.38-.8-1.26-.76-2.36-2.07-3.3-3.95-.84-1.66-1.67-4.09-2.48-7.29-.67-2.68-1.32-6.41-1.96-11.18-.64-4.77-.99-8.53-1.05-11.3-.06-3.3.1-5.87.47-7.69Z"/><path class="cls-1" d="m322.09,137.87s0-.06-.01-.09c0-.05-.02-.09-.02-.14l.03.23Z"/><path class="cls-1" d="m412.56,174.67c7.06.74,12.87-.5,17.43-3.71,4.73-3.34,8.3-8.96,10.74-16.84l-15.38-5.98c-.71,2.38-1.48,4.26-2.32,5.63-.84,1.45-1.68,2.51-2.52,3.19-.92.75-1.82,1.19-2.67,1.33-.94.13-1.97.14-3.11.02-3.19-.33-5.37-2.59-6.55-6.79-1.17-4.19-1.32-10.5-.44-18.93.91-8.73,2.25-14.96,4.02-18.69,1.77-3.73,4.25-5.43,7.44-5.1.84.09,1.62.29,2.36.59.66.3,1.34.79,2.03,1.48.62.68,1.17,1.62,1.66,2.82.49,1.2.9,2.74,1.25,4.62l.25-.2,16.75-2.74c-1.07-7.4-3.44-13.03-7.11-16.86-3.67-3.84-8.73-6.09-15.18-6.77-9.11-.95-16.19,1.73-21.22,8.03-5.03,6.31-8.29,16.56-9.77,30.76-1.48,14.2-.41,24.91,3.21,32.12,3.56,7.05,9.94,11.05,19.13,12.01Z"/><path class="cls-1" d="m472.69,156.38l3.48-2.13,5.24,36.52,18.79,6.98-8.52-53.02,35.91-22.33-19.32-7.18-16.88,11.56c-3.76,2.68-6.48,4.72-8.14,6.14-1.7,1.49-2.58,2.22-2.65,2.19l-.21-.08.48-1.29,1.28-3.44c.74-2,1.36-3.57,1.86-4.68.5-1.12,1.2-2.89,2.1-5.33l4.35-11.7-16.53-6.14-27.93,75.15,16.53,6.14,10.17-27.38Z"/><polygon class="cls-1" points="514.27 208.09 528.86 217.98 564.14 165.94 577.61 175.06 587.31 160.75 545.97 132.73 536.27 147.05 549.54 156.04 514.27 208.09"/><path class="cls-1" d="m555.6,240.41l10.99-6.65,13.62,14.86-7.58,10.37,12.07,13.17,46.34-68.1-15.63-17.06-71.87,40.23,12.07,13.17Zm46.02-27.42c2-1.21,3.72-2.32,5.17-3.34.33-.2.88-.57,1.63-1.11.75-.53,1.3-.9,1.63-1.1l1.67-1.22.42-.39.15.17-.42.39-1.36,1.56c-.23.31-.64.82-1.24,1.53-.6.7-1.01,1.21-1.24,1.52-1.88,2.24-3.14,3.86-3.78,4.86l-13.48,19.19-9.13-9.96,19.98-12.1Z"/><rect class="cls-1" x="586.73" y="257.78" width="80.17" height="17.64" transform="translate(-47.1 365.64) rotate(-31.4)"/><polygon class="cls-1" points="619.84 346.91 635.94 340.58 626.72 317.13 685.24 294.13 678.79 277.72 604.17 307.04 619.84 346.91"/><path class="cls-1" d="m390.22,0C175.05,0,0,175.05,0,390.22s175.05,390.22,390.22,390.22,390.22-175.05,390.22-390.22S605.39,0,390.22,0Zm0,764.64c-206.45,0-374.42-167.96-374.42-374.42S183.77,15.81,390.22,15.81s374.42,167.96,374.42,374.42-167.96,374.42-374.42,374.42Z"/><polygon class="cls-1" points="124.33 446.82 130.84 445.89 129.13 433.96 143.77 431.86 145.73 445.55 152.24 444.62 149.29 424.01 101.03 430.93 102.02 437.85 122.63 434.89 124.33 446.82"/><rect class="cls-1" x="106.74" y="457.68" width="48.76" height="6.98" transform="translate(-102.7 42.6) rotate(-13.32)"/><polygon class="cls-1" points="163.49 484.47 135.71 494.03 135.67 493.9 160.01 474.37 157.82 468.02 111.73 483.89 114 490.5 141.71 480.96 141.75 481.09 117.52 500.73 119.66 506.95 165.76 491.07 163.49 484.47"/><polygon class="cls-1" points="152.85 528.18 158.77 525.31 153.51 514.47 166.38 508.22 172.42 520.67 178.33 517.79 169.25 499.06 125.38 520.35 134.47 539.08 140.76 536.03 134.72 523.59 147.6 517.34 152.85 528.18"/><path class="cls-1" d="m193.69,563.42c3.23-2.38,5.12-5.06,5.65-8.03.53-2.97-.4-6.08-2.79-9.31l-6.13-8.32-39.23,28.95,5.77,7.83c2.47,3.34,5.23,5.26,8.29,5.75,3.06.5,6.42-.62,10.1-3.33l18.34-13.54Zm-27.5,10.08c-1.27-.08-2.49-.91-3.66-2.49l-1.91-2.59,28.65-21.14,1.91,2.59c1.22,1.65,1.64,3.1,1.25,4.35-.38,1.25-1.34,2.44-2.89,3.58l-18.9,13.95c-1.69,1.25-3.18,1.83-4.45,1.75Z"/><path class="cls-1" d="m209.2,593.72c2.07-.74,4.14-2.11,6.22-4.09,6.9-6.59,7.52-12.85,1.84-18.8l-7.75-8.12-35.27,33.67,4.82,5.05,15.05-14.38,2.89,3.02-10.56,19.08,5.11,5.35,10.89-20.82c2.44.77,4.69.78,6.76.04Zm-10.62-10.93l11-10.5,2.51,2.63c1.67,1.75,2.34,3.38,2.02,4.89-.21.77-.61,1.53-1.19,2.28-.58.74-1.32,1.54-2.22,2.39-.89.85-1.72,1.55-2.49,2.1-.77.55-1.51.91-2.23,1.09-.75.14-1.5.07-2.25-.22-.75-.29-1.55-.89-2.41-1.78l-2.74-2.87Z"/><rect class="cls-1" x="194.77" y="602.69" width="48.75" height="6.98" transform="translate(-383.41 377.24) rotate(-49.32)"/><polygon class="cls-1" points="259.05 605.99 242.22 630.08 242.11 630 250.29 599.88 244.78 596.03 216.87 636.01 222.59 640 239.37 615.98 239.49 616.06 231.46 646.2 236.85 649.96 264.77 609.99 259.05 605.99"/><polygon class="cls-1" points="287.53 622.53 268.02 637.33 267.9 637.27 278.41 617.64 272.25 614.35 249.24 657.33 255.39 660.63 262.28 647.77 268.93 643.33 265.72 666.16 272.24 669.65 276.08 638.54 293.68 625.82 287.53 622.53"/><path class="cls-1" d="m314.8,634.59c-1.12-1.11-2.49-1.97-4.11-2.58-1.92-.73-3.71-1.02-5.34-.89-1.64.14-3.12.59-4.44,1.36-1.36.75-2.56,1.81-3.62,3.17-1.05,1.36-1.9,2.89-2.54,4.6-1.08,2.86-1.5,5.43-1.26,7.69.25,2.26,1.55,4.5,3.94,6.73l3.95,3.69c.68.65,1.21,1.22,1.59,1.7.38.49.63,1.02.75,1.6.08.57.01,1.25-.19,2.05-.2.8-.53,1.8-.99,3-.39,1.02-.77,1.94-1.15,2.75-.38.81-.85,1.45-1.42,1.92s-1.22.75-1.96.83c-.74.09-1.67-.08-2.77-.5-1.67-.63-2.67-1.56-3.01-2.79-.34-1.23-.29-2.44.17-3.63l.77-2.05-6.53-2.47-.92,2.44c-.58,1.53-.83,3.07-.75,4.59.08,1.52.43,2.96,1.04,4.31.61,1.35,1.49,2.57,2.66,3.64,1.15,1.07,2.52,1.91,4.1,2.5,2.09.79,3.99,1.12,5.7.99,1.71-.13,3.24-.63,4.59-1.48,1.29-.83,2.44-1.99,3.45-3.49,1.01-1.5,1.87-3.21,2.6-5.13.63-1.67,1.1-3.18,1.42-4.55.32-1.37.44-2.65.37-3.86-.14-1.18-.52-2.31-1.14-3.39-.61-1.08-1.54-2.18-2.78-3.28l-4.25-3.88c-.73-.66-1.27-1.26-1.63-1.79-.37-.53-.58-1.07-.66-1.64-.07-.57-.03-1.16.12-1.78.16-.62.41-1.38.75-2.28.29-.77.64-1.48,1.03-2.13.4-.65.87-1.2,1.42-1.62.54-.38,1.14-.65,1.83-.78.68-.13,1.48-.03,2.37.31,1.67.63,2.65,1.62,2.94,2.97.29,1.36.15,2.78-.41,4.28l-.55,1.47,6.53,2.47,1.22-3.2c1-2.65.9-5.37-.28-8.16-.62-1.36-1.48-2.58-2.59-3.69Z"/><path class="cls-1" d="m362.71,648.79c-1.65-2.47-4.09-3.99-7.33-4.56-1.66-.3-3.23-.28-4.7.04-1.47.32-2.78.89-3.95,1.7-1.16.82-2.13,1.85-2.91,3.1-.78,1.26-1.3,2.67-1.58,4.24l-4.67,26.43c-.38,2.21-.36,4.07.09,5.62.44,1.54,1.12,2.85,2.05,3.94.92,1.09,2.02,1.93,3.3,2.53,1.29.6,2.58,1.01,3.89,1.24,1.53.27,3.01.22,4.44-.16,1.43-.37,2.74-.99,3.91-1.85,1.17-.86,2.15-1.91,2.94-3.13.8-1.23,1.33-2.59,1.59-4.07l.53-2.97-6.88-1.21-.42,2.36c-.17.94-.44,1.71-.82,2.29-.38.58-.81,1.02-1.27,1.3-.51.28-1.05.46-1.59.52-.55.07-1.05.06-1.49-.02-1.58-.28-2.58-.94-3.02-1.99-.44-1.05-.54-2.27-.29-3.67l4.33-24.55c.28-1.61.8-2.9,1.55-3.86.74-.96,1.97-1.28,3.68-.99,1.3.23,2.25.91,2.84,2.03.59,1.13.77,2.36.53,3.71l-.4,2.29,6.88,1.21.47-2.7c.29-1.66.29-3.25-.03-4.77-.31-1.51-.87-2.88-1.68-4.09Z"/><path class="cls-1" d="m395.35,670.2c.99-1.96,1.55-4.38,1.7-7.25.49-9.53-3.38-14.5-11.59-14.92l-11.21-.57-2.47,48.69,6.98.36,1.05-20.8,4.18.21,5.44,21.12,7.39.37-6.39-22.61c2.29-1.12,3.94-2.66,4.93-4.62Zm-5.63-4.51c-.18.93-.48,1.7-.87,2.32-.44.62-1.04,1.08-1.79,1.39-.74.3-1.73.43-2.96.36l-3.97-.2.77-15.18,3.63.19c2.41.12,4.03.85,4.82,2.16.38.71.61,1.53.7,2.47.09.94.1,2.02.04,3.26-.06,1.23-.19,2.31-.37,3.23Z"/><path class="cls-1" d="m413.54,647.89l-7.29,49.42,6.97-.51,1.28-10.6,9.49-.69,2.82,10.3,6.97-.51-14.43-47.83-5.8.43Zm1.71,31.66l2.12-17.87h.14s4.71,17.36,4.71,17.36l-6.97.51Z"/><polygon class="cls-1" points="458.78 663.04 446.94 665.31 444.16 650.78 457.74 648.18 456.51 641.73 436.07 645.64 445.23 693.53 452.09 692.21 448.18 671.77 460.02 669.5 458.78 663.04"/><polygon class="cls-1" points="484.16 640.4 482.25 634.11 460.1 640.85 462.02 647.13 469.75 644.78 482.01 685.14 488.7 683.11 476.43 642.75 484.16 640.4"/><polygon class="cls-1" points="510.34 667.78 504.75 654.6 515.85 649.89 513.28 643.84 502.19 648.55 496.6 635.37 509.34 629.97 506.77 623.92 487.61 632.04 506.64 676.93 525.8 668.81 523.08 662.38 510.34 667.78"/><path class="cls-1" d="m538.93,620.52c-1.99-3.49-4.44-5.66-7.33-6.54-2.89-.87-6.08-.31-9.57,1.68l-8.98,5.13,24.19,42.33,8.44-4.82c3.61-2.06,5.84-4.58,6.68-7.57.85-2.98.13-6.45-2.13-10.42l-11.32-19.8Zm3.92,31.84l-2.79,1.6-17.67-30.91,2.79-1.6c1.78-1.02,3.27-1.26,4.47-.74,1.19.53,2.27,1.62,3.22,3.29l11.66,20.39c1.04,1.82,1.45,3.37,1.22,4.63-.23,1.26-1.19,2.38-2.9,3.35Z"/><rect class="cls-1" x="568.26" y="586.77" width="6.98" height="48.76" transform="translate(-257.37 497.32) rotate(-39.09)"/><polygon class="cls-1" points="578.66 571.84 599.38 592.66 599.28 592.76 571.08 579.38 566.32 584.11 600.72 618.66 605.67 613.74 585 592.97 585.09 592.87 613.34 606.1 618 601.47 583.6 566.91 578.66 571.84"/><path class="cls-1" d="m646.17,553.73c-.79-1.23-1.81-2.27-3.06-3.11l-2.49-1.69-3.92,5.78,1.98,1.35c.8.54,1.38,1.1,1.76,1.69.37.58.59,1.15.67,1.69.04.58-.01,1.14-.18,1.66-.16.52-.37.97-.63,1.35-.9,1.32-1.91,1.97-3.05,1.94-1.14-.03-2.3-.44-3.47-1.23l-20.62-14c-1.36-.92-2.32-1.92-2.89-2.99-.57-1.08-.37-2.33.61-3.77.74-1.1,1.75-1.68,3.02-1.76,1.27-.08,2.47.26,3.6,1.03l1.93,1.31,3.92-5.78-2.26-1.54c-1.4-.95-2.85-1.59-4.36-1.92-1.51-.34-2.98-.38-4.42-.14-2.93.49-5.31,2.1-7.16,4.82-.95,1.4-1.58,2.83-1.89,4.31-.31,1.47-.33,2.9-.07,4.3.27,1.4.81,2.7,1.64,3.92.83,1.23,1.9,2.28,3.22,3.18l22.21,15.07c1.85,1.26,3.57,2,5.16,2.22,1.59.22,3.07.13,4.44-.26,1.37-.39,2.59-1.06,3.66-1.98,1.07-.93,1.98-1.94,2.72-3.04.87-1.28,1.43-2.66,1.67-4.12.24-1.46.22-2.9-.08-4.32-.31-1.42-.86-2.75-1.65-3.97Z"/><polygon class="cls-1" points="622.81 508.76 641.53 518.01 637.71 525.75 618.98 516.49 615.89 522.75 659.6 544.36 662.69 538.1 643.23 528.48 647.05 520.74 666.52 530.37 669.62 524.1 625.91 502.5 622.81 508.76"/><rect class="cls-1" x="650.31" y="474.71" width="6.99" height="48.76" transform="translate(-51.43 922.4) rotate(-68.33)"/><polygon class="cls-1" points="677.91 482.87 637.86 471.02 635.87 477.71 682.63 491.54 688.53 471.58 681.83 469.6 677.91 482.87"/><polygon class="cls-1" points="688.05 437.64 685.63 451.26 671.55 448.76 673.65 436.89 667.17 435.75 665.07 447.61 650.98 445.12 653.39 431.5 646.93 430.35 643.29 450.85 691.3 459.36 694.93 438.86 688.05 437.64"/><path class="cls-1" d="m390.22,39.96c-193.14,0-350.26,157.13-350.26,350.26s157.13,350.26,350.26,350.26,350.26-157.13,350.26-350.26S583.36,39.96,390.22,39.96Zm0,686.34c-185.31,0-336.08-150.76-336.08-336.08S204.91,54.15,390.22,54.15s336.08,150.76,336.08,336.08-150.76,336.08-336.08,336.08Z"/><path class="cls-1" d="m387.15,588.76c48.21,0,92.26-18.14,125.8-47.95.67-.54,1.36-1.02,2.03-1.57.59-.48,1.13-1.09,1.64-1.77,37.25-34.86,60.6-84.49,60.6-139.52,0-105.21-85.27-190.81-190.08-190.81s-190.08,85.59-190.08,190.81,85.27,190.81,190.08,190.81Zm37.49-313.49l-10.13-.93-6.54,7.57-2.22-9.64-9.44-3.69,8.76-5.03.7-9.85,7.64,6.53,9.87-2.4-4.05,9.06,5.4,8.37Zm-74.43,33.27l-13.77-1.26-8.88,10.29-3.01-13.1-12.83-5.02,11.9-6.83.96-13.39,10.37,8.88,13.41-3.26-5.5,12.32,7.34,11.37Zm169.6,214.84c2.65-30.04,5.08-60.09,7.52-90.15.07-.89-.27-1.81-.52-3.36-8.08,7.32-15.59,14.13-23.11,20.94-.33-.23-.66-.46-.99-.69,1.24-4.96,2.48-9.91,3.72-14.87-.32-.12-.64-.24-.95-.35-25.25,30.18-50.5,60.36-75.75,90.53-.47-.28-.95-.56-1.42-.85,12.01-45.96,24.01-91.92,36.02-137.88-.36-.13-.71-.26-1.07-.39-12.68,25.32-25.37,50.64-38.05,75.95-.49-.16-.99-.33-1.48-.49,1.13-11.77,2.27-23.55,3.4-35.32l-1.18-.31c-18.46,30.07-36.91,60.13-55.37,90.2l-1.41-.61c10.17-39.66,20.34-79.33,30.51-118.99-.34-.14-.68-.29-1.01-.43-14.29,23.95-28.58,47.9-42.86,71.85-.42-.21-.84-.42-1.26-.63,4.33-17.47,8.65-34.95,12.98-52.42-.39-.16-.77-.33-1.16-.49-22.9,45.05-45.79,90.11-68.69,135.16-.37-.16-.75-.32-1.12-.48,6.69-31.82,13.38-63.64,20.07-95.47-.35-.18-.71-.37-1.06-.55-2.21,2.48-4.41,4.95-6.62,7.43-.36-.21-.71-.42-1.07-.63,3.95-15.35,7.89-30.69,11.84-46.04-.31-.12-.63-.24-.94-.36-13.68,20.21-27.36,40.42-41.04,60.63-.55-.28-1.1-.56-1.65-.84,2.19-8.86,4.37-17.72,6.56-26.58-1.29.76-1.9,1.75-2.42,2.78-9.15,18-18.19,36.06-27.49,53.98-1.87,3.6-4.22,6.95-6.51,10.33-14.27-17.43-25.37-37.55-32.48-59.46,2.23-3.56,4.39-7.05,6.63-10.43,6.33-9.55,12.99-18.89,23.16-25.05,7.86-4.76,16.71-5.63,25.05-2.47,5.23,1.98,9.35,1.8,13.75-.68,3.75-2.11,7.51-4.29,10.91-6.87,6.29-4.79,12.24-10,18.48-14.85,8.96-6.94,16.06-7.15,25.01-.37,3.02,2.28,4.75,2.37,7.24-.46,10.61-12.05,21.58-23.81,32.02-36,7.01-8.19,16.35-9.12,24.39-1.71.98.9,2,1.76,2.99,2.63,5.88-5.94,7.6-6.51,14.97-2.34,6.58,3.72,12.83,8.07,18.91,12.55,5.28,3.9,10.16,5.54,16.7,2.29,7.04-3.5,13.09-1.72,17.98,4.4,2.75,3.45,5.12,7.23,7.27,11.07,3.15,5.63,5.92,11.47,8.91,17.19,4.62,8.86,12.19,13.02,22.32,13.25,4.17.09,8.56-.11,12.41,1.1,3.34,1.05,7.17,3.3,8.86,6.1,7.83,12.95,14.97,26.29,22.4,39.47.57,1.01,1.33,1.96,2.15,3.03-8.57,21.26-21.01,40.54-36.44,56.98Z"/></g></g></svg>