<?xml version="1.0" encoding="UTF-8"?><svg id="Capa_2" xmlns="http://www.w3.org/2000/svg" viewBox="0 0 1521.89 594.38"><defs><style>.cls-1{fill:#fff;}</style></defs><g id="Capa_1-2"><g><g><path class="cls-1" d="m94.1,166.16l11.89,66.48c.83,4.6,1.96,9.12,3.39,13.56,1.43,4.45,2.79,8.24,4.09,11.37l3.43,7.6,1.49,2.9-.5.32-2.08-2.17c-.59-.56-1.48-1.51-2.68-2.84-1.2-1.34-2.2-2.45-2.99-3.34-2.29-2.5-5.14-5.34-8.56-8.53-3.31-3.01-6.93-5.95-10.85-8.82l-55.16-38.96L0,226.35l110.55,173.84,35.56-22.62-36.37-57.2c-4.22-6.63-8.58-12.94-13.08-18.92-3.6-4.92-7.74-9.98-12.43-15.15-1.12-1.39-2.7-3.23-4.75-5.54-2.05-2.3-3.47-3.9-4.27-4.79l-3.44-3.75.99-.63,2.89,2.35c.75.45,1.88,1.31,3.38,2.57,1.5,1.26,2.73,2.28,3.69,3.06.96.79,2.44,2.01,4.42,3.65,1.98,1.65,3.59,2.9,4.83,3.74,4.61,3.59,8.01,6.2,10.21,7.82l37.83,27.64,17.41-11.07-8.98-45.98c-1.09-5.36-1.95-9.47-2.6-12.32-.24-1.47-.72-3.5-1.42-6.08-.71-2.57-1.16-4.38-1.35-5.43-.2-1.04-.54-2.5-1.05-4.4-.5-1.89-.8-3.27-.89-4.15l-.75-3.37,1-.63,2.1,4.95c.47,1.1,1.38,3.09,2.73,5.95,1.35,2.87,2.34,5.15,2.96,6.85,2.7,6.44,5.51,12.33,8.45,17.68,3.4,6.45,7.27,13.08,11.59,19.87l36.22,56.95,35.56-22.62-111.34-175.08-35.56,22.62Z"/><path class="cls-1" d="m317.51,128.91l.24.03v-5.31s.11-24.17.11-24.17c.01-1.64-.14-3.26-.42-4.82-1.59-8.74-7.51-16.15-15.35-19.6-1.56-.7-3.21-1.24-4.92-1.59-1.18-.26-2.37-.42-3.59-.5l-16.93-1.01v.38l-.16,41.11-.05,13.05h.09s-.66,20.32-.66,20.32c-.2,10.15.28,18.15,1.42,24.01,1.14,5.86,1.63,8.83,1.45,8.9l-.55.21c-.18.07-1.77-2.48-4.76-7.66-2.98-5.18-7.87-11.53-14.67-19.06l-42.69-46.03-42.51,15.89,97.65,101.31,27.02,72.33,42.52-15.89-27.04-72.33,3.8-79.57Z"/><path class="cls-1" d="m541.1,177.9c-1.05,4.18-2.38,7.41-3.97,9.68-1.76,2.51-3.64,4.24-5.66,5.2-2.22.99-4.78,1.74-7.68,2.26-8.12,1.44-15.13-2.6-21.01-12.14-5.88-9.53-10.73-25.03-14.54-46.51-3.94-22.25-5.05-38.61-3.32-49.1,1.73-10.48,6.66-16.45,14.79-17.89,2.13-.38,4.21-.45,6.25-.21,1.84.27,3.87,1.01,6.08,2.21,2.01,1.24,4.05,3.17,6.11,5.8,2.06,2.63,4.18,6.14,6.36,10.55l.48-.68,39.49-18.68c-7.9-17.55-17.76-29.78-29.55-36.66-11.8-6.88-25.92-8.87-42.36-5.95-23.22,4.12-38.81,15.77-46.78,34.94-7.97,19.18-8.75,46.85-2.33,83.03,6.42,36.18,16.66,61.9,30.75,77.16,13.82,14.91,32.43,20.29,55.84,16.13,17.99-3.19,31.48-10.38,40.47-21.55,9.31-11.63,14.18-28.06,14.61-49.29l-42.3-3.87c-.06,6.4-.63,11.59-1.73,15.57Z"/><path class="cls-1" d="m704.17,27.74c-12.55-16.33-30.57-23.56-54.08-21.67-23.5,1.89-40.13,12-49.89,30.33-9.75,18.08-13.16,45.44-10.25,82.07,2.98,36.7,10.73,63.2,23.25,79.5,12.34,16.15,30.36,23.28,54.05,21.37,23.89-1.93,40.55-11.74,49.96-29.45,9.76-18.33,13.17-45.8,10.22-82.43-2.95-36.62-10.71-63.2-23.27-79.73Zm-21.41,112.3c-.31,8.5-1.06,15.07-2.26,19.7-1.35,5.24-3.4,9.14-6.15,11.73-2.75,2.59-6.28,4.06-10.59,4.4-4.31.35-8.02-.54-11.15-2.65-3.13-2.11-5.78-5.64-7.95-10.59-1.93-4.38-3.72-10.74-5.38-19.08-1.35-6.99-2.52-16.65-3.51-28.99-.99-12.34-1.38-22.06-1.17-29.18.3-8.5,1.05-15.06,2.26-19.69,1.35-5.23,3.4-9.14,6.15-11.73,2.75-2.59,6.27-4.05,10.59-4.4,4.31-.35,8.03.54,11.15,2.65,3.13,2.11,5.78,5.65,7.95,10.6,1.93,4.38,3.72,10.74,5.38,19.08,1.35,6.99,2.52,16.65,3.52,28.99.99,12.34,1.38,22.07,1.17,29.18Z"/><path class="cls-1" d="m589.98,118.84c0-.12-.02-.23-.03-.35,0-.08-.01-.15-.02-.23l.05.59Z"/><path class="cls-1" d="m832.67,158.43c-1.8,3.92-3.69,6.85-5.67,8.8-2.18,2.15-4.35,3.5-6.52,4.08-2.36.57-5.02.84-7.96.82-8.25-.06-14.4-5.31-18.45-15.76-4.04-10.44-5.98-26.57-5.81-48.38.18-22.59,2.07-38.89,5.68-48.88,3.61-9.99,9.55-14.96,17.8-14.89,2.16.02,4.22.33,6.18.93,1.76.6,3.62,1.7,5.57,3.29,1.76,1.59,3.4,3.86,4.96,6.82,1.55,2.96,2.99,6.8,4.33,11.53l.59-.59,42.23-11.16c-4.57-18.7-12.03-32.51-22.37-41.44C842.89,4.66,829.37.13,812.67,0c-23.57-.18-41.03,8.43-52.37,25.83-11.33,17.4-17.14,44.47-17.43,81.21-.28,36.75,5.1,63.9,16.17,81.47,10.87,17.18,28.19,25.86,51.96,26.04,18.27.14,32.85-4.46,43.73-13.81,11.28-9.74,19.06-25,23.34-45.8l-40.88-11.52c-1.23,6.28-2.74,11.28-4.54,15Z"/><path class="cls-1" d="m1004.82,15.73l-34.5,39.78c-7.63,9.11-13.06,15.97-16.28,20.58-3.25,4.81-4.97,7.2-5.16,7.18l-.59-.06.35-3.52.94-9.39c.55-5.47,1.08-9.76,1.59-12.87.51-3.11,1.1-7.98,1.77-14.63l3.21-31.96-45.16-4.53-20.62,205.27,45.16,4.54,7.51-74.78,7.28-7.56,36.83,87.52,51.32,5.15-55.72-126.45,74.87-78.97-52.79-5.3Z"/><polygon class="cls-1" points="1200.14 49.39 1074.15 24.15 1065.41 67.79 1105.86 75.89 1074.08 234.54 1118.59 243.46 1150.37 84.81 1191.4 93.03 1200.14 49.39"/><path class="cls-1" d="m1262.85,67.33l-109.37,181.56,43.77,14.05,15.98-28.67,24.42,7.89c1.17.38,2.34.64,3.51.85l20.45,6.57,1.12.35-3.75,32.85,43.78,14.05,16.79-211.29-56.69-18.2Zm16.84,47.82l-1.05,5.23c-.12,1-.39,2.66-.83,4.99-.45,2.34-.72,4-.84,4.99-1.34,7.41-2.09,12.63-2.25,15.68l-5.5,58.26-32.36-10.45,28.32-50.87c2.93-5.24,5.36-9.94,7.31-14.06.47-.87,1.22-2.39,2.23-4.53,1-2.16,1.74-3.67,2.23-4.55l2.18-4.88.45-1.39.57.17-.46,1.41Z"/><rect class="cls-1" x="1271.4" y="195.98" width="206.3" height="45.39" transform="translate(606.51 1379.42) rotate(-65.55)"/><path class="cls-1" d="m1443.5,305.58l-.2-.13,78.59-125-38.42-24.16-78.5,124.83-.29-.18-17.1,26.95c-.96,1.5-1.74,3.06-2.37,4.65-4.19,10.63-1.21,22.9,7.52,30.4,1,.87,2.06,1.67,3.21,2.39l15.9,10.11.22-.34,54.89,34.52,23.7-37.67-54.74-34.42,7.58-11.93Z"/></g><g><path class="cls-1" d="m508.74,447.02v-93.78h40.04v12.65h-26.6v28.45h23.18v12.65h-23.18v40.04h-13.43Z"/><path class="cls-1" d="m557.86,447.02v-93.78h13.43v93.78h-13.43Z"/><path class="cls-1" d="m583.81,447.02v-93.78h12.9l20.28,56.5h.26v-56.5h13.43v93.78h-12.64l-20.55-56.37h-.26v56.37h-13.43Z"/><path class="cls-1" d="m642.81,447.02v-93.78h40.04v12.65h-26.6v27.52h23.18v12.65h-23.18v27.53h26.6v13.43h-40.04Z"/><path class="cls-1" d="m716.03,447.02v-93.78h19.89c7.72,0,13.59,2.11,17.58,6.32,3.99,4.22,6,10.19,6,17.91v43.86c0,8.78-2.13,15.26-6.39,19.42-4.26,4.17-10.38,6.26-18.38,6.26h-18.7Zm13.43-81.13v68.48h6.19c3.77,0,6.46-.94,8.03-2.83,1.58-1.89,2.37-4.85,2.37-8.89v-45.17c0-3.69-.74-6.54-2.24-8.56-1.49-2.02-4.21-3.03-8.17-3.03h-6.19Z"/><path class="cls-1" d="m772.14,447.02v-93.78h21.6c15.81,0,23.71,9.18,23.71,27.53,0,5.53-.85,10.23-2.57,14.09-1.71,3.86-4.72,6.98-9.02,9.35l14.49,42.81h-14.22l-12.51-40.04h-8.03v40.04h-13.43Zm13.43-81.13v29.24h7.64c2.37,0,4.26-.33,5.66-.99,1.4-.66,2.5-1.6,3.29-2.83.7-1.23,1.19-2.74,1.45-4.54.26-1.8.39-3.88.39-6.25s-.13-4.46-.39-6.26c-.26-1.8-.79-3.36-1.58-4.68-1.67-2.46-4.83-3.69-9.48-3.69h-6.98Z"/><path class="cls-1" d="m828.64,447.02v-93.78h13.43v93.78h-13.43Z"/><path class="cls-1" d="m854.59,447.02v-93.78h12.9l20.28,56.5h.26v-56.5h13.43v93.78h-12.64l-20.55-56.37h-.26v56.37h-13.43Z"/><path class="cls-1" d="m913.59,447.02v-93.78h13.43v42.81h.27l19.62-42.81h13.43l-18.31,37.54,21.73,56.24h-14.22l-15.28-41.62-7.24,13.56v28.06h-13.43Z"/><path class="cls-1" d="m1013.16,380.25h-13.44v-3.03c0-3.08-.72-5.73-2.17-7.97-1.45-2.24-3.88-3.36-7.31-3.36-1.84,0-3.34.35-4.48,1.05-1.14.7-2.06,1.58-2.77,2.63-.7,1.14-1.18,2.44-1.45,3.88-.27,1.45-.4,2.97-.4,4.54,0,1.84.07,3.38.2,4.61.13,1.23.46,2.33.99,3.29.52.97,1.29,1.8,2.3,2.5,1.01.7,2.39,1.4,4.15,2.11l10.27,4.08c2.98,1.14,5.4,2.48,7.24,4.02,1.84,1.54,3.29,3.32,4.35,5.34.96,2.11,1.62,4.5,1.98,7.18.35,2.68.53,5.73.53,9.16,0,3.95-.4,7.62-1.19,11-.79,3.38-2.06,6.25-3.82,8.63-1.84,2.46-4.26,4.39-7.24,5.79-2.99,1.4-6.63,2.11-10.93,2.11-3.25,0-6.28-.58-9.09-1.71-2.81-1.14-5.23-2.72-7.24-4.74-2.02-2.02-3.62-4.37-4.81-7.04-1.18-2.68-1.78-5.6-1.78-8.76v-5.01h13.43v4.21c0,2.46.72,4.68,2.17,6.65,1.45,1.98,3.89,2.96,7.31,2.96,2.28,0,4.06-.33,5.34-.99,1.27-.66,2.26-1.6,2.96-2.83.7-1.23,1.12-2.7,1.25-4.41.13-1.71.19-3.62.19-5.73,0-2.46-.08-4.48-.26-6.06-.18-1.58-.52-2.85-1.05-3.82-.61-.96-1.43-1.76-2.44-2.37-1.01-.61-2.35-1.27-4.02-1.98l-9.61-3.95c-5.8-2.37-9.68-5.51-11.66-9.42-1.98-3.91-2.97-8.8-2.97-14.68,0-3.51.48-6.85,1.45-10.01.96-3.16,2.41-5.88,4.35-8.17,1.84-2.28,4.19-4.1,7.04-5.47,2.85-1.36,6.26-2.04,10.21-2.04,3.33,0,6.38.62,9.15,1.84,2.77,1.23,5.16,2.86,7.18,4.87,4.04,4.21,6.06,9.05,6.06,14.49v6.59Z"/></g><g><path class="cls-1" d="m443.87,566.86v5.79c0,2.9-.55,5.64-1.65,8.23-1.1,2.59-2.61,4.9-4.54,6.91-1.93,2.02-4.19,3.62-6.78,4.81-2.59,1.18-5.38,1.78-8.36,1.78-2.55,0-5.14-.36-7.77-1.06-2.63-.7-5-1.93-7.11-3.69-2.11-1.76-3.84-4.02-5.2-6.78-1.36-2.77-2.04-6.3-2.04-10.6v-51.63c0-3.08.53-5.93,1.58-8.56,1.05-2.63,2.55-4.92,4.48-6.85,1.93-1.93,4.24-3.44,6.92-4.54,2.67-1.1,5.64-1.65,8.89-1.65,6.32,0,11.46,2.06,15.41,6.19,1.93,2.02,3.44,4.41,4.54,7.18,1.1,2.77,1.65,5.78,1.65,9.02v5.27h-13.43v-4.48c0-2.63-.75-4.92-2.24-6.85-1.5-1.93-3.52-2.89-6.06-2.89-3.34,0-5.56,1.03-6.65,3.09-1.1,2.06-1.65,4.68-1.65,7.84v47.94c0,2.72.59,5.01,1.78,6.85s3.31,2.76,6.38,2.76c.88,0,1.82-.15,2.83-.46,1.01-.3,1.95-.81,2.83-1.51.79-.7,1.45-1.66,1.98-2.89.52-1.23.79-2.77.79-4.61v-4.61h13.43Z"/><path class="cls-1" d="m454.8,593.59v-93.78h21.6c15.81,0,23.71,9.18,23.71,27.53,0,5.53-.85,10.23-2.57,14.09-1.71,3.86-4.72,6.98-9.02,9.35l14.49,42.81h-14.22l-12.51-40.04h-8.03v40.04h-13.43Zm13.43-81.13v29.24h7.64c2.37,0,4.26-.33,5.66-.99,1.4-.66,2.5-1.6,3.29-2.83.7-1.23,1.19-2.74,1.45-4.54.26-1.8.39-3.88.39-6.25s-.13-4.46-.39-6.26c-.26-1.8-.79-3.36-1.58-4.68-1.67-2.46-4.83-3.69-9.48-3.69h-6.98Z"/><path class="cls-1" d="m504.85,593.59l20.94-93.78h11.2l20.94,93.78h-13.43l-3.95-20.15h-18.31l-3.95,20.15h-13.43Zm33.19-32.79l-6.59-33.98h-.26l-6.58,33.98h13.43Z"/><path class="cls-1" d="m564.51,593.59v-93.78h40.04v12.65h-26.6v28.45h23.18v12.65h-23.18v40.04h-13.43Z"/><path class="cls-1" d="m622.07,593.59v-81.13h-15.54v-12.65h44.51v12.65h-15.54v81.13h-13.43Z"/><path class="cls-1" d="m656.97,593.59v-93.78h40.04v12.65h-26.6v27.52h23.18v12.65h-23.18v27.53h26.6v13.43h-40.04Z"/><path class="cls-1" d="m705.7,593.59v-93.78h19.89c7.72,0,13.59,2.11,17.58,6.32,3.99,4.22,6,10.19,6,17.91v43.86c0,8.78-2.13,15.26-6.39,19.42-4.26,4.17-10.38,6.26-18.38,6.26h-18.7Zm13.43-81.13v68.48h6.19c3.77,0,6.46-.94,8.03-2.83,1.58-1.89,2.37-4.85,2.37-8.89v-45.17c0-3.69-.74-6.54-2.24-8.56-1.49-2.02-4.21-3.03-8.17-3.03h-6.19Z"/><path class="cls-1" d="m786.7,593.59v-93.78h13.43v93.78h-13.43Z"/><path class="cls-1" d="m812.64,593.59v-93.78h12.9l20.28,56.5h.26v-56.5h13.43v93.78h-12.64l-20.55-56.37h-.26v56.37h-13.43Z"/><path class="cls-1" d="m938.81,566.86v5.79c0,2.9-.55,5.64-1.65,8.23-1.1,2.59-2.61,4.9-4.54,6.91-1.93,2.02-4.19,3.62-6.78,4.81-2.59,1.18-5.38,1.78-8.36,1.78-2.55,0-5.14-.36-7.77-1.06-2.63-.7-5-1.93-7.11-3.69-2.11-1.76-3.84-4.02-5.2-6.78-1.36-2.77-2.04-6.3-2.04-10.6v-51.63c0-3.08.53-5.93,1.58-8.56,1.05-2.63,2.55-4.92,4.48-6.85,1.93-1.93,4.24-3.44,6.92-4.54,2.67-1.1,5.64-1.65,8.89-1.65,6.32,0,11.46,2.06,15.41,6.19,1.93,2.02,3.44,4.41,4.54,7.18,1.1,2.77,1.65,5.78,1.65,9.02v5.27h-13.43v-4.48c0-2.63-.75-4.92-2.24-6.85-1.5-1.93-3.52-2.89-6.06-2.89-3.34,0-5.56,1.03-6.65,3.09-1.1,2.06-1.65,4.68-1.65,7.84v47.94c0,2.72.59,5.01,1.78,6.85,1.18,1.84,3.31,2.76,6.38,2.76.88,0,1.82-.15,2.83-.46,1.01-.3,1.95-.81,2.83-1.51.79-.7,1.45-1.66,1.98-2.89.52-1.23.79-2.77.79-4.61v-4.61h13.43Z"/><path class="cls-1" d="m949.74,593.59v-93.78h13.43v40.17h16.59v-40.17h13.44v93.78h-13.44v-41.75h-16.59v41.75h-13.43Z"/><path class="cls-1" d="m1006.24,593.59v-93.78h13.43v93.78h-13.43Z"/><path class="cls-1" d="m1032.71,593.59v-93.78h13.43v80.34h26.6v13.43h-40.04Z"/><path class="cls-1" d="m1081.45,593.59v-93.78h40.04v12.65h-26.6v27.52h23.18v12.65h-23.18v27.53h26.6v13.43h-40.04Z"/></g></g></g></svg>